<svg xmlns="http://www.w3.org/2000/svg"
    width="274.79999999999995" height="178.72997187343816"
    viewBox="0 0 350.00000000000006 227.64006606878957" class="looka-1j8o68f">
    <defs id="SvgjsDefs2744">
        <linearGradient id="SvgjsLinearGradient2749">
            <stop id="SvgjsStop2750" stop-color="#ef4136" offset="0"></stop>
            <stop id="SvgjsStop2751" stop-color="#fbb040" offset="1"></stop>
        </linearGradient>
        <linearGradient id="SvgjsLinearGradient2752">
            <stop id="SvgjsStop2753" stop-color="#ef4136" offset="0"></stop>
            <stop id="SvgjsStop2754" stop-color="#fbb040" offset="1"></stop>
        </linearGradient>
    </defs>
    <g id="SvgjsG2745" featurekey="symbolFeature-0"
        transform="matrix(2.8000000000000003,0,0,2.8000000000000003,85.4,-25.200000000000003)"
        fill="url(#SvgjsLinearGradient2749)">
        <metadata xmlns="http://www.w3.org/2000/svg">
            <sfw xmlns="http://ns.adobe.com/SaveForWeb/1.0/">
                <slices>
                    <slicesourcebounds y="-8160" x="-8165" width="16389" height="16384"
                        bottomleftorigin="true"></slicesourcebounds>
                    <optimizationsettings>
                        <targetsettings fileformat="PNG24Format" targetsettingsid="0">
                            <png24format transparency="true" mattecolor="" nomattecolor="false"
                                interlaced="false" filtered="false"></png24format>
                        </targetsettings>
                    </optimizationsettings>
                </slices>
            </sfw>
        </metadata>
        <g xmlns="http://www.w3.org/2000/svg">
            <path
                d="M56,9H8c-0.552,0-1,0.448-1,1v44c0,0.553,0.448,1,1,1h48c0.553,0,1-0.447,1-1V10C57,9.448,56.553,9,56,9z M30.707,32.707   l-10,10C20.512,42.902,20.256,43,20,43s-0.512-0.098-0.707-0.293c-0.391-0.391-0.391-1.023,0-1.414L28.586,32l-9.293-9.293   c-0.391-0.391-0.391-1.023,0-1.414s1.023-0.391,1.414,0l10,10C31.098,31.684,31.098,32.316,30.707,32.707z M44,43H34   c-0.553,0-1-0.447-1-1s0.447-1,1-1h10c0.553,0,1,0.447,1,1S44.553,43,44,43z"></path>
        </g>
    </g>
    <g id="SvgjsG2746" featurekey="nameFeature-0"
        transform="matrix(2.1557033671117463,0,0,2.1557033671117463,2.328159728993438,125.11481302438577)"
        fill="url(#SvgjsLinearGradient2752)">
        <path
            d="M4.36 15.120000000000001 c-0.76 0 -1.28 -0.48 -1.28 -1.24 s0.52 -1.28 1.28 -1.28 s1.28 0.52 1.28 1.28 s-0.52 1.24 -1.28 1.24 z M-1.08 47.56 l0 -1.16 c3.4 -0.12 4.84 -2.08 4.84 -5.28 l0 -21.96 l1.24 0 l0 21.96 c0 3.84 -2 6.36 -6.08 6.44 z M17.240000000000002 18.72 c3.68 0 5.8 2.36 5.8 6.36 l0 14.92 l-1.12 0 l-0.08 -2.52 c-0.88 1.8 -2.68 2.96 -5.48 2.96 c-3.52 0 -5.88 -2.36 -5.88 -6.32 c0 -3.88 2.48 -6.08 6.92 -6.08 l4.44 0 l0 -2.96 c0 -3.32 -1.64 -5.2 -4.64 -5.2 c-2.88 0 -4.76 1.84 -4.84 4.28 l-1.24 0 c0.2 -3.12 2.48 -5.44 6.12 -5.44 z M16.52 39.24 c3.52 0 5.32 -2.04 5.32 -5.44 l0 -4.6 l-4.44 0 c-3.72 0 -5.68 1.8 -5.68 4.92 c0 3.24 1.88 5.12 4.8 5.12 z M35.88 18.72 c3.28 0 5.28 2.52 5.28 7.72 l0 13.56 l-1.24 0 l0 -13.44 c0 -4.48 -1.48 -6.68 -4.28 -6.68 c-3.2 0 -5.56 2.92 -5.56 7.36 l0 12.76 l-1.24 0 l0 -20.84 l1.12 0 l0.12 2.8 l0 0.72 c1.12 -2.44 3.2 -3.96 5.8 -3.96 z M53.08 38.96 l0.88 0 l0 1.16 l-0.88 0 c-3.56 0 -5.4 -1.84 -5.4 -5.52 l0 -14.32 l-2.96 0 l0 -1.12 l2.96 0 l0 -4.92 l1.24 0 l0 4.92 l4.72 0 l0 1.12 l-4.72 0 l0 14.32 c0 3.04 1.44 4.36 4.16 4.36 z M63 40.44 c-3.8 0 -6.24 -2.2 -6.36 -6.08 l1.2 0 c0.16 3.28 2 4.88 5.16 4.88 c2.64 0 4.72 -1.56 4.72 -4.08 c0 -6 -10.84 -4.44 -10.84 -11.32 c0 -3.04 2.4 -5.12 5.72 -5.12 c3.52 0 5.8 2.12 5.92 5.52 l-1.24 0 c-0.08 -2.8 -1.8 -4.36 -4.68 -4.36 c-2.6 0 -4.48 1.56 -4.48 4 c0 5.76 10.8 4.24 10.8 11.32 c0 3.12 -2.6 5.24 -5.92 5.24 z M79.19999999999999 40.4 c-3.84 0 -6.24 -2.64 -6.24 -6.76 l0 -8.16 c0 -4.12 2.36 -6.76 6.12 -6.76 c3.92 0 6.28 2.64 6.32 6.96 l-1.24 0 c-0.04 -3.64 -1.88 -5.76 -5.08 -5.76 c-3.04 0 -4.88 2.12 -4.88 5.56 l0 8.16 c0 3.44 1.88 5.56 5 5.56 c3.16 0 5.04 -2.12 5.08 -5.84 l1.24 0 c-0.04 4.4 -2.44 7.04 -6.32 7.04 z M97.36 18.72 c3.36 0 5.32 2.6 5.32 7.96 l0 13.32 l-1.24 0 l0 -13.28 c0 -4.64 -1.52 -6.84 -4.32 -6.84 c-3.2 0 -5.56 2.92 -5.56 7.36 l0 12.76 l-1.24 0 l0 -28.84 l1.24 0 l0 11.52 c1.12 -2.44 3.2 -3.96 5.8 -3.96 z M108.68 40.32 c-0.76 0 -1.24 -0.48 -1.24 -1.24 s0.48 -1.2 1.24 -1.2 c0.72 0 1.2 0.44 1.2 1.2 s-0.48 1.24 -1.2 1.24 z M125.76 11.079999999999998 l1.2 0 l0 28.92 l-1.08 0 l-0.12 -2.4 c-1.04 1.64 -2.96 2.84 -5.2 2.84 c-3.52 0 -6.16 -2.72 -6.16 -6.88 l0 -8 c0 -4.12 2.4 -6.84 5.92 -6.84 c2.44 0 4.52 1.24 5.44 3.56 l0 -11.2 z M120.76 39.28 c2.8 0 5 -2.2 5 -5.44 l0 -7.44 c0 -4.28 -2.32 -6.52 -5.16 -6.52 c-3 0 -4.96 2.12 -4.96 5.68 l0 8 c0 3.56 2.16 5.72 5.12 5.72 z M143.88 33.8 l1.24 0 c-0.4 4 -2.56 6.6 -6.64 6.6 c-3.84 0 -6.24 -2.64 -6.24 -6.76 l0 -8.16 c0 -4.12 2.4 -6.76 6.24 -6.76 c3.88 0 6.28 2.64 6.28 6.76 l0 4.72 l-11.28 0 l0 3.44 c0 3.44 1.88 5.56 5 5.56 c3.36 0 5.04 -2.08 5.4 -5.4 z M138.48 19.92 c-3.12 0 -5 2.12 -5 5.56 l0 3.6 l10.08 0 l0 -3.6 c0 -3.44 -1.92 -5.56 -5.08 -5.56 z M160 19.16 l1.28 0 l-6.04 20.84 l-1.28 0 l-6.04 -20.84 l1.28 0 l3.84 13.56 c0.52 1.84 1.08 3.96 1.52 5.64 l0.08 0 c0.44 -1.68 1 -3.8 1.52 -5.64 z"></path>
    </g>
</svg>