<svg  xmlns="http://www.w3.org/2000/svg" class="css-ze2te4 css-qd6ojx" viewBox="0 0 140 128.8"><g transform="translate(-19.6, -25.200000000000003) scale(2.8000000000000003)" class="css-1ptthtq" fill="url(#SvgjsLinearGradient2749)"><metadata xmlns="http://www.w3.org/2000/svg"><sfw xmlns="http://ns.adobe.com/SaveForWeb/1.0/"><slices><slicesourcebounds y="-8160" x="-8165" width="16389" height="16384" bottomleftorigin="true"></slicesourcebounds><optimizationsettings><targetsettings fileformat="PNG24Format" targetsettingsid="0"><png24format transparency="true" mattecolor="" nomattecolor="false" interlaced="false" filtered="false"></png24format></targetsettings></optimizationsettings></slices></sfw></metadata><g xmlns="http://www.w3.org/2000/svg"><path d="M56,9H8c-0.552,0-1,0.448-1,1v44c0,0.553,0.448,1,1,1h48c0.553,0,1-0.447,1-1V10C57,9.448,56.553,9,56,9z M30.707,32.707   l-10,10C20.512,42.902,20.256,43,20,43s-0.512-0.098-0.707-0.293c-0.391-0.391-0.391-1.023,0-1.414L28.586,32l-9.293-9.293   c-0.391-0.391-0.391-1.023,0-1.414s1.023-0.391,1.414,0l10,10C31.098,31.684,31.098,32.316,30.707,32.707z M44,43H34   c-0.553,0-1-0.447-1-1s0.447-1,1-1h10c0.553,0,1,0.447,1,1S44.553,43,44,43z"></path></g></g></svg>